<svg xmlns="http://www.w3.org/2000/svg" viewBox="0 0 71.014 70.985">
  <defs>
    <style>
      .cls-1 {
        opacity: 0.171;
      }
    </style>
  </defs>
  <g id="Group_298" data-name="Group 298" class="cls-1" transform="translate(15.016 0.024) rotate(15)">
    <path id="Path_402" data-name="Path 402" d="M57.471.465A1.672,1.672,0,0,0,55.629.119L.982,24.068a1.691,1.691,0,0,0-1,1.447,1.659,1.659,0,0,0,.841,1.533L19.873,37.853,31.186,57.1a1.682,1.682,0,0,0,1.434.828h.1a1.673,1.673,0,0,0,1.434-1L57.83,2.308A1.65,1.65,0,0,0,57.471.465ZM48.78,6.758,20.813,34.54,5.371,25.786ZM32.4,52.578l-9.211-15.69L51.314,8.947Z" transform="translate(0 0)"/>
  </g>
</svg>
