<?xml version="1.0" encoding="UTF-8"?>
<svg width="13px" height="15px" viewBox="0 0 13 15" version="1.1" xmlns="http://www.w3.org/2000/svg" xmlns:xlink="http://www.w3.org/1999/xlink">
    <!-- Generator: Sketch 50 (54983) - http://www.bohemiancoding.com/sketch -->
    <title>Path</title>
    <desc>Created with Sketch.</desc>
    <defs></defs>
    <g id="Page-1" stroke="none" stroke-width="1" fill="none" fill-rule="evenodd">
        <g id="Wilsons_Logo_110913-EPS" transform="translate(-55.000000, -33.000000)" fill="#6DB744">
            <path d="M67.3649039,33 C66.7718822,33.136 66.2578822,33.914 65.5188822,34.278 C64.2968822,34.881 62.6908822,34.451 61.2308822,34.783 C58.0038822,35.521 56.0178822,38.575 56.5578822,40.669 C57.5078822,38.923 59.6438822,37.371 61.3498822,36.789 C61.6988822,36.67 62.3178822,36.534 62.3418822,36.596 C62.3658822,36.656 62.0848822,36.833 61.9148822,36.918 C60.9018822,37.425 59.9748822,38.129 59.1168822,38.923 C56.7238822,41.141 56.5338822,42.472 55.7258822,44.713 C55.2458822,46.049 54.9158822,46.807 55.0188822,47.9 C55.6728822,47.664 55.9378822,47.169 55.9658822,46.619 C55.9858822,46.227 55.9918822,45.912 56.0858822,45.431 C56.2848822,44.403 56.4878822,43.774 57.0568822,42.866 C58.1228822,41.166 59.4928822,41.677 60.7468822,41.424 C64.5948822,40.657 67.3738822,36.786 67.3649039,33 Z" id="Path"></path>
        </g>
    </g>
</svg>