<svg xmlns="http://www.w3.org/2000/svg" viewBox="0 0 56.532 32.984">
  <defs>
    <style>
      .cls-1 {
        opacity: 0.575;
      }

      .cls-2 {
        fill: #fff;
      }
    </style>
  </defs>
  <g id="Group_291" data-name="Group 291" class="cls-1">
    <g id="Group_284" data-name="Group 284" transform="translate(0 25.906)">
      <g id="Group_283" data-name="Group 283">
        <path id="Path_388" data-name="Path 388" class="cls-2" d="M56.383,235.163a1.192,1.192,0,0,0-1-.563H1.2a1.181,1.181,0,0,0-1,.563,1.211,1.211,0,0,0-.055,1.148,9.648,9.648,0,0,0,8.679,5.367H47.758a9.648,9.648,0,0,0,8.679-5.367A1.212,1.212,0,0,0,56.383,235.163Zm-8.624,4.152H8.823a7.326,7.326,0,0,1-5.4-2.352H53.147A7.244,7.244,0,0,1,47.758,239.315Z" transform="translate(-0.024 -234.6)"/>
      </g>
    </g>
    <g id="Group_286" data-name="Group 286" transform="translate(10.434 9.428)">
      <g id="Group_285" data-name="Group 285">
        <path id="Path_389" data-name="Path 389" class="cls-2" d="M112.349,86.471a1.186,1.186,0,0,0-1.248-1.093,18.783,18.783,0,0,0-16.52,12.533,1.187,1.187,0,0,0,.718,1.5,1.236,1.236,0,0,0,.386.066,1.2,1.2,0,0,0,1.115-.784A16.451,16.451,0,0,1,111.256,87.73,1.184,1.184,0,0,0,112.349,86.471Z" transform="translate(-94.518 -85.375)"/>
      </g>
    </g>
    <g id="Group_288" data-name="Group 288" transform="translate(4.733 4.715)">
      <g id="Group_287" data-name="Group 287">
        <path id="Path_390" data-name="Path 390" class="cls-2" d="M89.939,65.017a23.558,23.558,0,0,0-47.052.022A1.175,1.175,0,0,0,44,66.276h.066a1.175,1.175,0,0,0,1.171-1.115,21.2,21.2,0,0,1,42.348-.022,1.178,1.178,0,1,0,2.352-.121Z" transform="translate(-42.886 -42.7)"/>
      </g>
    </g>
    <g id="Group_290" data-name="Group 290" transform="translate(24.732)">
      <g id="Group_289" data-name="Group 289">
        <path id="Path_391" data-name="Path 391" class="cls-2" d="M227.534,0a3.534,3.534,0,1,0,3.534,3.534A3.544,3.544,0,0,0,227.534,0Zm0,4.715a1.182,1.182,0,1,1,1.182-1.182A1.183,1.183,0,0,1,227.534,4.715Z" transform="translate(-224)"/>
      </g>
    </g>
  </g>
</svg>
