<svg xmlns="http://www.w3.org/2000/svg" xmlns:xlink="http://www.w3.org/1999/xlink" viewBox="0 0 85.373 208.556">
  <defs>
    <style>
      .cls-1 {
        fill: #fff;
      }

      .cls-2 {
        filter: url(#Path_263);
      }

      .cls-3 {
        filter: url(#Path_262);
      }
    </style>
    <filter id="Path_262" x="0" y="0" width="85.373" height="208.556" filterUnits="userSpaceOnUse">
      <feOffset input="SourceAlpha"/>
      <feGaussianBlur stdDeviation="6" result="blur"/>
      <feFlood flood-opacity="0.675"/>
      <feComposite operator="in" in2="blur"/>
      <feComposite in="SourceGraphic"/>
    </filter>
    <filter id="Path_263" x="25.53" y="172.556" width="36.264" height="36" filterUnits="userSpaceOnUse">
      <feOffset input="SourceAlpha"/>
      <feGaussianBlur stdDeviation="6" result="blur-2"/>
      <feFlood flood-opacity="0.675"/>
      <feComposite operator="in" in2="blur-2"/>
      <feComposite in="SourceGraphic"/>
    </filter>
  </defs>
  <g id="Group_173" data-name="Group 173" transform="translate(18 18)">
    <g class="cls-3" transform="matrix(1, 0, 0, 1, -18, -18)">
      <path id="Path_262-2" data-name="Path 262" class="cls-1" d="M15.939,60.153V162.7a9.379,9.379,0,0,0,2.943,6.945A9.756,9.756,0,0,0,35.45,162.7V60.153C38.394,59.128,49.373,49.34,49.373,46.2V4.927a4.856,4.856,0,0,0-1.455-3.472,4.871,4.871,0,0,0-6.945,0,4.725,4.725,0,0,0-1.455,3.472V37a4.856,4.856,0,0,1-1.455,3.472,4.725,4.725,0,0,1-3.472,1.455,4.856,4.856,0,0,1-3.472-1.455A4.8,4.8,0,0,1,29.663,37V4.927a4.856,4.856,0,0,0-1.455-3.472A5.123,5.123,0,0,0,24.67,0,4.856,4.856,0,0,0,21.2,1.455a4.725,4.725,0,0,0-1.455,3.472V37a4.856,4.856,0,0,1-1.455,3.472,4.725,4.725,0,0,1-3.472,1.455,4.856,4.856,0,0,1-3.472-1.455A4.673,4.673,0,0,1,9.888,37V4.927A4.856,4.856,0,0,0,8.433,1.455a4.91,4.91,0,0,0-6.978,0A4.856,4.856,0,0,0,0,4.927V46.165C0,49.306,13,59.128,15.939,60.153Z" transform="translate(18 18)"/>
    </g>
    <g class="cls-2" transform="matrix(1, 0, 0, 1, -18, -18)">
      <path id="Path_263-2" data-name="Path 263" class="cls-1" d="M77.465,521.8h0Z" transform="translate(-33.67 -331.24)"/>
    </g>
  </g>
</svg>
