<svg xmlns="http://www.w3.org/2000/svg" viewBox="0 0 34.128 28.577">
  <defs>
    <style>
      .cls-1 {
        fill: #fff;
      }
    </style>
  </defs>
  <path id="Twitter_3_" class="cls-1" d="M141.445,25.146a12.658,12.658,0,0,1-4.459,1.729,7.016,7.016,0,0,0-5.1-2.275,7.11,7.11,0,0,0-7.008,7.19,10.029,10.029,0,0,0,.182,1.638,19.706,19.706,0,0,1-14.379-7.463,6.984,6.984,0,0,0-.91,3.64,7.58,7.58,0,0,0,3.094,6.007,6.469,6.469,0,0,1-3.185-.91v.091a7.054,7.054,0,0,0,5.643,7.008,5.868,5.868,0,0,1-1.82.273,5.6,5.6,0,0,1-1.274-.091,7.139,7.139,0,0,0,6.553,5.005,13.737,13.737,0,0,1-8.646,3.094,9.893,9.893,0,0,1-1.638-.091,19.6,19.6,0,0,0,10.739,3.185c12.832,0,19.931-10.921,19.931-20.386v-.91a13.536,13.536,0,0,0,3.458-3.731,12.49,12.49,0,0,1-4,1.092A8.957,8.957,0,0,0,141.445,25.146Z" transform="translate(-108.5 -24.6)"/>
</svg>
