<svg xmlns="http://www.w3.org/2000/svg" viewBox="0 0 18.702 15.66">
  <defs>
    <style>
      .cls-1 {
        fill: #272c3b;
      }
    </style>
  </defs>
  <path id="Twitter_3_" class="cls-1" d="M126.553,24.9a6.937,6.937,0,0,1-2.444.948,3.845,3.845,0,0,0-2.793-1.247,3.9,3.9,0,0,0-3.84,3.94,5.5,5.5,0,0,0,.1.9,10.8,10.8,0,0,1-7.88-4.089,3.827,3.827,0,0,0-.5,1.995,4.154,4.154,0,0,0,1.7,3.292,3.545,3.545,0,0,1-1.746-.5v.05a3.865,3.865,0,0,0,3.092,3.84,3.216,3.216,0,0,1-1,.15,3.067,3.067,0,0,1-.7-.05,3.912,3.912,0,0,0,3.591,2.743,7.528,7.528,0,0,1-4.738,1.7,5.421,5.421,0,0,1-.9-.05,10.741,10.741,0,0,0,5.885,1.745c7.032,0,10.922-5.985,10.922-11.171v-.5a7.418,7.418,0,0,0,1.9-2.045,6.845,6.845,0,0,1-2.194.6A4.908,4.908,0,0,0,126.553,24.9Z" transform="translate(-108.5 -24.6)"/>
</svg>
