<svg xmlns="http://www.w3.org/2000/svg" viewBox="0 0 35.225 35.2">
  <defs>
    <style>
      .cls-1 {
        opacity: 0.172;
      }
    </style>
  </defs>
  <path id="Path_280" data-name="Path 280" class="cls-1" d="M35.173,27.779a1.7,1.7,0,0,1-.524,1.493l-4.96,4.923a2.758,2.758,0,0,1-.877.634,3.5,3.5,0,0,1-1.06.335c-.024,0-.1.006-.225.018s-.286.018-.487.018a16.663,16.663,0,0,1-2.291-.244,17.523,17.523,0,0,1-3.875-1.194,32.484,32.484,0,0,1-5.2-2.852,38.876,38.876,0,0,1-6.191-5.222,41.069,41.069,0,0,1-4.326-4.923,34.787,34.787,0,0,1-2.76-4.344A23.285,23.285,0,0,1,.826,12.8,18.949,18.949,0,0,1,.119,10,8.963,8.963,0,0,1-.027,8.159C0,7.714.009,7.464.009,7.415a3.68,3.68,0,0,1,.335-1.06,2.663,2.663,0,0,1,.634-.871L5.938.524A1.643,1.643,0,0,1,7.132,0a1.384,1.384,0,0,1,.859.28,2.637,2.637,0,0,1,.634.689l3.991,7.568a1.815,1.815,0,0,1,.189,1.3,2.326,2.326,0,0,1-.634,1.194l-1.828,1.828a.6.6,0,0,0-.128.244.971.971,0,0,0-.055.28,6.656,6.656,0,0,0,.67,1.791,16.458,16.458,0,0,0,1.377,2.181,24.184,24.184,0,0,0,2.651,2.967A24.649,24.649,0,0,0,17.844,23a16.56,16.56,0,0,0,2.181,1.4,6.061,6.061,0,0,0,1.34.542l.463.091a.949.949,0,0,0,.244-.055.642.642,0,0,0,.244-.128l2.126-2.163a2.286,2.286,0,0,1,1.566-.6,1.92,1.92,0,0,1,1.005.225h.037l7.2,4.253A1.846,1.846,0,0,1,35.173,27.779Z" transform="translate(0.035)"/>
</svg>
