<svg xmlns="http://www.w3.org/2000/svg" viewBox="0 0 44.078 33.48">
  <path id="Path_279" data-name="Path 279" d="M38.842,0H5.236A5.132,5.132,0,0,0,0,5.028V28.451A5.139,5.139,0,0,0,5.236,33.48H38.842a5.139,5.139,0,0,0,5.236-5.028V5.028A5.146,5.146,0,0,0,38.842,0Zm0,29.039H5.236c-.427,0-.8-.277-.8-.588V8.119l15.2,12.836a1.709,1.709,0,0,0,1.119.4h2.572a1.8,1.8,0,0,0,1.119-.4L39.638,8.119V28.451C39.638,28.763,39.257,29.039,38.842,29.039Zm-16.8-12.086L7.254,4.44h29.57Z" transform="translate(0)"/>
</svg>
