<svg xmlns="http://www.w3.org/2000/svg" viewBox="0 0 120.953 144">
  <defs>
    <style>
      .cls-1 {
        fill: #76bc21;
      }
    </style>
  </defs>
  <path id="Path_1369" data-name="Path 1369" class="cls-1" d="M148.08,98.277c37.662-7.754,65.354-45.415,65.354-83.077-5.539,1.108-11.077,8.862-17.723,12.185-12.185,5.538-27.692,2.215-42.092,4.431-32.123,7.754-50.954,37.662-46.523,57.6C115.957,71.692,137,57.292,154.726,50.646a90.213,90.213,0,0,1,9.969-2.215c0,1.108-2.215,2.215-4.431,3.323a159.187,159.187,0,0,0-27.692,19.938c-23.262,22.154-25.477,35.446-33.231,56.492-4.431,13.292-7.754,21.046-6.646,31.015,6.646-2.215,8.862-6.646,8.862-12.185a54.35,54.35,0,0,1,1.108-12.185c2.215-9.969,4.431-16.615,9.969-25.477C122.6,94.954,135.9,100.492,148.08,98.277Z" transform="translate(-92.48 -15.2)"/>
</svg>
