<svg xmlns="http://www.w3.org/2000/svg" viewBox="0 0 55.467 52">
  <defs>
    <style>
      .cls-1 {
        opacity: 0.167;
      }

      .cls-2 {
        fill: #030104;
      }
    </style>
  </defs>
  <g id="Group_269" data-name="Group 269" class="cls-1">
    <g id="Group_268" data-name="Group 268">
      <path id="Path_385" data-name="Path 385" class="cls-2" d="M4,16.933v10.4H31.733V10H4Zm3.467-3.467h20.8v3.467H7.467Zm0,6.933h20.8v3.467H7.467Z" transform="translate(9.867 24.667)"/>
      <path id="Path_386" data-name="Path 386" class="cls-2" d="M31.733,10.4V0H4V17.333H31.733Z" transform="translate(9.867)"/>
      <path id="Path_387" data-name="Path 387" class="cls-2" d="M48.533,3H45.067V13.4H10.4V3H6.933A7.456,7.456,0,0,0,0,9.933V27.267A7.456,7.456,0,0,0,6.933,34.2H10.4V23.8H45.067V34.2h3.467a7.456,7.456,0,0,0,6.933-6.933V9.933A7.456,7.456,0,0,0,48.533,3Z" transform="translate(0 7.4)"/>
    </g>
  </g>
</svg>
