<svg id="Group_530" data-name="Group 530" xmlns="http://www.w3.org/2000/svg" viewBox="0 0 74.207 79.9">
  <defs>
    <style>
      .cls-1 {
        fill: #76bc21;
      }

      .cls-2 {
        fill: #fff;
      }
    </style>
  </defs>
  <g id="Group_534" data-name="Group 534">
    <path id="Path_1337" data-name="Path 1337" class="cls-1" d="M64.195,85.712c0,.065-1.636,0-4.384,0A109.953,109.953,0,0,0,35.86,88.46c-12.5,2.879-26.5,8.769-35.86,20.678V103.38S15.247,84.4,49.995,84.6c3.076,0,6.413.2,9.816.524A32.083,32.083,0,0,1,64.195,85.712Z" transform="translate(0 -29.239)"/>
    <path id="Path_1338" data-name="Path 1338" class="cls-1" d="M54.575,81.6a20.873,20.873,0,0,0-2.487-.523A89.338,89.338,0,0,0,36.253,79.7C11.779,79.765,0,90.759,0,90.759v5.759c14.4-13.349,32.457-15.64,43.778-15.64a80.744,80.744,0,0,1,8.18.393C53.136,81.4,54.641,81.663,54.575,81.6Z" transform="translate(0 -27.546)"/>
    <path id="Path_1339" data-name="Path 1339" class="cls-1" d="M0,0H74.207V53.267C65.634,56.8,31.149,39,0,58.175Z"/>
  </g>
  <g id="Group_536" data-name="Group 536" transform="translate(2.814 9.947)">
    <g id="Group_535" data-name="Group 535">
      <path id="Path_1340" data-name="Path 1340" class="cls-2" d="M35.9,16.6v2.356h1.178v9.1a2.783,2.783,0,0,0,.327,1.636,2.147,2.147,0,0,0,2.029.851,4.028,4.028,0,0,0,2.159-.589l.131-1.832a1.457,1.457,0,0,1-.851.262c-.327,0-.458-.2-.458-.524V16.6Z" transform="translate(-15.222 -15.684)"/>
      <path id="Path_1341" data-name="Path 1341" class="cls-2" d="M81.833,22.5A4.1,4.1,0,0,0,78.5,24.071L77.906,22.7H74.7v2.356h1.178v7.46h3.4V26.884a2.491,2.491,0,0,1,.262-1.243,1.27,1.27,0,0,1,1.112-.589,1.008,1.008,0,0,1,.982.524,2.185,2.185,0,0,1,.2.982v5.955h3.4V26.034a3.787,3.787,0,0,0-.458-2.159A3.232,3.232,0,0,0,81.833,22.5Z" transform="translate(-28.632 -17.723)"/>
      <path id="Path_1342" data-name="Path 1342" class="cls-2" d="M50.546,24.625a7.527,7.527,0,0,1,2.683.524v-2.29a11.067,11.067,0,0,0-2.945-.458c-2.094,0-4.384.851-4.384,3.272,0,3.8,5.039,2.618,5.039,3.926,0,.458-.524.654-1.309.654a7.541,7.541,0,0,1-3.4-.916L46.1,31.823a10.928,10.928,0,0,0,3.861.72c2.094,0,4.123-.851,4.188-3.272,0-3.73-5.039-2.748-5.039-3.926C49.041,24.821,49.761,24.625,50.546,24.625Z" transform="translate(-18.678 -17.688)"/>
      <path id="Path_1343" data-name="Path 1343" class="cls-2" d="M71.071,41.676H69.5v2.356h1.571v3.992c0,1.44.2,2.29.785,2.879a3.425,3.425,0,0,0,2.29.72,5.773,5.773,0,0,0,2.945-.785l.065-2.159a4.274,4.274,0,0,1-1.832.589c-.72,0-.916-.458-.916-1.178V44.031h2.225V41.676H74.408V38.6l-3.4.785Z" transform="translate(-26.834 -23.287)"/>
      <path id="Path_1344" data-name="Path 1344" class="cls-2" d="M86.315,53.012v-5.5c0-1.309.458-1.832,1.571-1.832a4.636,4.636,0,0,1,.916.065V43.131A1.076,1.076,0,0,0,88.147,43,2.875,2.875,0,0,0,85.6,44.571L85.006,43.2H81.8v2.356h1.178v7.46h3.337Z" transform="translate(-31.085 -24.808)"/>
      <path id="Path_1345" data-name="Path 1345" class="cls-2" d="M27.1,25.156h.982v5.039a3.412,3.412,0,0,0,.327,1.636,2.147,2.147,0,0,0,2.029.851,4.028,4.028,0,0,0,2.159-.589l.131-1.832a1.457,1.457,0,0,1-.851.262c-.327,0-.458-.2-.458-.524V22.8H27.165v2.356Z" transform="translate(-12.18 -17.827)"/>
      <path id="Path_1346" data-name="Path 1346" class="cls-2" d="M19.9,48c0,3.076,1.767,5.039,5.039,5.039A4.674,4.674,0,0,0,29.977,48c0-3.076-1.767-5.1-5.039-5.1C21.667,42.965,19.9,44.994,19.9,48Zm4.973-2.814c1.243,0,1.571.982,1.571,2.814s-.327,2.814-1.571,2.814S23.3,49.836,23.3,48C23.3,46.237,23.63,45.19,24.873,45.19Z" transform="translate(-9.692 -24.774)"/>
      <path id="Path_1347" data-name="Path 1347" class="cls-2" d="M30.167,19.6A1.829,1.829,0,0,0,32,17.767a1.8,1.8,0,0,0-3.6,0A1.736,1.736,0,0,0,30.167,19.6Z" transform="translate(-12.629 -15.476)"/>
      <path id="Path_1348" data-name="Path 1348" class="cls-2" d="M7.7,32.45h2.487l1.44-4.123,1.309,4.123H15.49l3.337-9.75H16.079l-1.636,5.562L12.872,22.7H9.862l.654,2.029L9.339,28.262,7.572,22.7H4.3Z" transform="translate(-4.3 -17.792)"/>
      <path id="Path_1349" data-name="Path 1349" class="cls-2" d="M42.455,48.962a2.491,2.491,0,0,1-.262,1.243,1.27,1.27,0,0,1-1.112.589,1.008,1.008,0,0,1-.982-.524,2.185,2.185,0,0,1-.2-.982V43.4H36.5v6.413a3.787,3.787,0,0,0,.458,2.159A3.232,3.232,0,0,0,39.9,53.347a4.4,4.4,0,0,0,2.945-1.112,2.083,2.083,0,0,0,1.963,1.112,4.228,4.228,0,0,0,2.225-.654l.131-1.832a1.457,1.457,0,0,1-.851.262c-.327,0-.458-.2-.458-.524V43.4h-3.4Z" transform="translate(-15.429 -24.946)"/>
      <path id="Path_1350" data-name="Path 1350" class="cls-2" d="M99.755,43.265v5.693a2.491,2.491,0,0,1-.262,1.243,1.27,1.27,0,0,1-1.112.589,1.008,1.008,0,0,1-.982-.524,1.883,1.883,0,0,1-.2-1.047V43.265H93.8v6.478a3.787,3.787,0,0,0,.458,2.159A3.232,3.232,0,0,0,97.2,53.277a3.732,3.732,0,0,0,2.552-.982v.72c0,1.309-.524,1.963-1.9,1.963a6.9,6.9,0,0,1-3.337-1.047l-.262,2.421a8.872,8.872,0,0,0,4.253.982c1.7,0,2.945-.393,3.665-1.309a1.989,1.989,0,0,0,.327-.458c.065-.131.654-.916.654-4.908V43.2h-3.4" transform="translate(-35.233 -24.877)"/>
      <path id="Path_1351" data-name="Path 1351" class="cls-2" d="M95.765,20.108A5.108,5.108,0,0,0,99.626,15.2c-.327.065-.654.524-1.047.72a10,10,0,0,1-2.487.262c-1.9.458-3.01,2.225-2.748,3.4a5.393,5.393,0,0,1,2.814-2.29,5.33,5.33,0,0,1,.589-.131c0,.065-.131.131-.262.2a9.4,9.4,0,0,0-1.636,1.178,6.683,6.683,0,0,0-1.963,3.337,4.206,4.206,0,0,0-.393,1.832.689.689,0,0,0,.524-.72,3.211,3.211,0,0,1,.065-.72,4.252,4.252,0,0,1,.589-1.505C94.26,19.912,95.045,20.239,95.765,20.108Z" transform="translate(-34.777 -15.2)"/>
      <path id="Path_1352" data-name="Path 1352" class="cls-2" d="M64.239,22.5c-3.206,0-5.039,2.029-5.039,5.1s1.767,5.039,5.039,5.039A4.674,4.674,0,0,0,69.277,27.6C69.212,24.529,67.445,22.5,64.239,22.5Zm0,7.853c-1.243,0-1.571-.982-1.571-2.814s.327-2.814,1.571-2.814,1.571.982,1.571,2.814S65.482,30.353,64.239,30.353Z" transform="translate(-23.274 -17.723)"/>
      <path id="Path_1353" data-name="Path 1353" class="cls-2" d="M56.5,44.536l-.589-1.374H52.7v2.356h1.178v7.46h3.4V47.284a2.491,2.491,0,0,1,.262-1.243,1.27,1.27,0,0,1,1.112-.589,1.008,1.008,0,0,1,.982.524,2.185,2.185,0,0,1,.2.982v5.955h3.4V46.434a3.787,3.787,0,0,0-.458-2.159A3.232,3.232,0,0,0,59.833,42.9,4.246,4.246,0,0,0,56.5,44.536Z" transform="translate(-21.028 -24.774)"/>
      <path id="Path_1354" data-name="Path 1354" class="cls-2" d="M101.246,24.625a7.528,7.528,0,0,1,2.683.524v-2.29a11.067,11.067,0,0,0-2.945-.458c-2.094,0-4.384.851-4.384,3.272,0,3.8,5.039,2.618,5.039,3.926,0,.458-.523.654-1.309.654a7.541,7.541,0,0,1-3.4-.916L96.8,31.823a10.928,10.928,0,0,0,3.861.72c2.094,0,4.123-.851,4.188-3.272,0-3.73-5.039-2.748-5.039-3.926C99.741,24.821,100.461,24.625,101.246,24.625Z" transform="translate(-36.201 -17.688)"/>
    </g>
    <path id="Path_1355" data-name="Path 1355" class="cls-2" d="M8.7,47.908c0-1.636.524-2.748,1.44-2.748.785,0,1.047.654,1.243,1.767l3.076-.589a3.941,3.941,0,0,0-1.374-2.552A4.351,4.351,0,0,0,10.4,43h-.262a2.684,2.684,0,0,0-.72.065h0C6.805,43.327,5.3,45.29,5.3,48.1c0,3.076,1.7,5.039,4.842,5.039h.2a7.834,7.834,0,0,0,3.73-.982l.131-2.29a6.117,6.117,0,0,1-3.141.982C9.357,50.787,8.7,49.806,8.7,47.908Z" transform="translate(-4.646 -24.808)"/>
  </g>
</svg>
