<svg xmlns="http://www.w3.org/2000/svg" xmlns:xlink="http://www.w3.org/1999/xlink" viewBox="0 0 127.097 216.032">
  <defs>
    <style>
      .cls-1 {
        fill: #fff;
      }

      .cls-2 {
        filter: url(#Path_269);
      }
    </style>
    <filter id="Path_269" x="0" y="0" width="127.097" height="216.032" filterUnits="userSpaceOnUse">
      <feOffset input="SourceAlpha"/>
      <feGaussianBlur stdDeviation="6" result="blur"/>
      <feFlood flood-opacity="0.706"/>
      <feComposite operator="in" in2="blur"/>
      <feComposite in="SourceGraphic"/>
    </filter>
  </defs>
  <g class="cls-2" transform="matrix(1, 0, 0, 1, 0, 0)">
    <path id="Path_269-2" data-name="Path 269" class="cls-1" d="M91.1,17.593h0C90.97,6.17,67.587,0,45.533,0,23.51,0,.127,6.17,0,17.593H0v.158A45.58,45.58,0,0,0,43.191,63.157V94.071H30.25v4.968h5.189v70.719a10.4,10.4,0,0,0,9.429,10.252,10.091,10.091,0,0,0,10.727-10.062V99.039h5.158V94.071H48.127V63.125A45.572,45.572,0,0,0,91.033,17.751v-.095C91.1,17.656,91.1,17.624,91.1,17.593ZM17.656,23.415h5.316v4.651q-2.848-.664-5.316-1.424Zm45.786-4.461H58.126V15.061h5.316Zm5-3.892h4.968v3.892H68.441ZM53.158,18.953H48.19V15.061h4.968Zm-9.967,0H37.875V15.061h5.316Zm-10.284,0H27.94V15.061h4.968Zm-9.967,0H17.656V15.061h5.316v3.892Zm5,4.461h4.968v6.3c-1.74-.19-3.386-.411-4.968-.664Zm9.967,0h5.316v6.961c-1.835-.032-3.607-.095-5.316-.221Zm10.284,0h4.968v6.74c-1.645.095-3.291.19-4.968.221Zm9.936,0h5.316v5.569c-1.709.285-3.481.538-5.316.728Zm10.315,0h4.968v3.259c-1.582.506-3.227.949-4.968,1.361Zm9.936,0h2.69c-.823.475-1.709.918-2.69,1.361V23.415Zm0-4.461V15.061H84.99A4.2,4.2,0,0,1,86.1,17.656v.063a2.923,2.923,0,0,1-.285,1.234ZM73.409,8.733v1.9H68.441V7.373C70.213,7.784,71.859,8.227,73.409,8.733ZM63.442,6.36V10.6H58.126V5.632C59.993,5.854,61.765,6.107,63.442,6.36ZM53.158,5.221V10.6H48.19V5C49.9,5.031,51.544,5.126,53.158,5.221ZM43.191,5v5.6H37.875V5.221C39.647,5.126,41.419,5.031,43.191,5Zm-10.284.664V10.6H27.94V6.328C29.553,6.075,31.2,5.854,32.907,5.664ZM22.94,7.309v3.322H17.656v-1.9C19.3,8.2,21.105,7.721,22.94,7.309ZM12.657,10.6ZM6.075,15.061h6.581v3.892h-7.4a2.923,2.923,0,0,1-.285-1.234v-.063A4.6,4.6,0,0,1,6.075,15.061Zm6.581,8.353v1.329c-.949-.443-1.835-.886-2.595-1.329ZM45.5,58.221A40.568,40.568,0,0,1,6.044,26.832c8.385,5.6,24.269,8.543,39.521,8.543S76.7,32.433,85.085,26.8A40.579,40.579,0,0,1,45.5,58.221Z" transform="translate(18 18)"/>
  </g>
</svg>
