<svg xmlns="http://www.w3.org/2000/svg" xmlns:xlink="http://www.w3.org/1999/xlink" viewBox="0 0 207.201 176.818">
  <defs>
    <style>
      .cls-1 {
        fill: #fff;
      }

      .cls-2 {
        filter: url(#Path_264);
      }
    </style>
    <filter id="Path_264" x="0" y="0" width="207.201" height="176.818" filterUnits="userSpaceOnUse">
      <feOffset input="SourceAlpha"/>
      <feGaussianBlur stdDeviation="6" result="blur"/>
      <feFlood flood-opacity="0.675"/>
      <feComposite operator="in" in2="blur"/>
      <feComposite in="SourceGraphic"/>
    </filter>
  </defs>
  <g id="Group_176" data-name="Group 176" transform="translate(17.973 18.074)">
    <g class="cls-2" transform="matrix(1, 0, 0, 1, -17.97, -18.07)">
      <path id="Path_264-2" data-name="Path 264" class="cls-1" d="M26.185,94.819a37,37,0,0,0,.625,8.123c1.874,12.5,10.31,23.431,23.744,30.3,9.685,5,21.244,7.5,33.429,7.5a88.347,88.347,0,0,0,12.809-.937c16.87-2.5,31.866-9.372,42.489-19.682C150.214,109.5,155.213,96.693,153.338,84.2c-.312-1.25-.312-2.5-.625-3.749,19.995-22.182,24.368-50.3,10.31-67.482C151.776-.781,139.592-3.592,124.6,4.218c-10,5.311-19.057,15.308-27.493,24.056-2.187,2.5-4.374,4.686-6.248,6.561-5.623-.937-11.559-1.875-16.87-2.5a114.011,114.011,0,0,1-17.5-2.812c-29.992-7.5-48.425-12.184-55.3,15C-3.495,62.328,6.19,81.7,26.185,94.819ZM150.527,73.262a14.592,14.592,0,0,0-1.562-3.124l-.312-.312a17.329,17.329,0,0,0-1.874-2.5l-.312-.312a24.619,24.619,0,0,0-11.872-8.123h-.312a57.563,57.563,0,0,0-7.81-1.562h-.625c-2.187-7.186-7.5-12.5-15.933-16.87A47.775,47.775,0,0,0,98.041,36.4c1.25-1.25,2.187-2.5,3.437-3.749,7.81-8.435,16.87-18.12,25.618-22.494,4.686-2.5,8.748-3.749,12.5-3.749,6.561,0,12.184,3.437,18.12,10.935,11.559,14.059,8.123,37.178-7.81,56.547C150.527,73.575,150.527,73.575,150.527,73.262ZM32.433,95.131V93.569a13.145,13.145,0,0,1,7.5-11.559h0c6.248-3.437,16.558-5.311,32.8-7.81,5-.625,11.247-2.5,17.808-4.374,4.061-1.25,8.123-2.5,12.184-3.437h.312c1.25-.312,2.5-.625,3.437-.937a13.531,13.531,0,0,0,1.562-.312c.937-.312,1.562-.312,2.5-.625.625,0,.937-.312,1.562-.312.937,0,1.562-.312,2.5-.312h2.187c.937,0,1.875-.312,2.812-.312h4.686c1.562,0,2.812.312,4.061.312h.625c1.25.312,2.5.625,3.437.937h.625a13.057,13.057,0,0,1,3.124,1.25.306.306,0,0,1,.312.312,14.671,14.671,0,0,1,2.812,1.875h0c.937.625,1.562,1.562,2.5,2.187h0a21.923,21.923,0,0,1,1.874,2.812.306.306,0,0,0,.312.312,29.029,29.029,0,0,1,1.562,3.124v.312c.312,1.25.937,2.187,1.25,3.749s.625,3.124.937,5c1.562,10.622-2.812,21.244-12.184,30.617-9.685,9.372-23.431,15.933-39.052,18.12-15.308,2.187-30.617,0-42.489-5.936-11.559-5.936-19.057-15-20.619-25.618A26.1,26.1,0,0,1,32.433,95.131ZM7.128,46.082c5.311-20.307,15-18.745,47.8-10A123.4,123.4,0,0,0,73.047,38.9c11.559,1.25,24.368,2.812,33.429,7.186,6.248,3.124,10,6.561,12.184,11.247h-1.25c-9.06.937-19.057,3.749-28.117,6.248-4.686,1.25-9.372,2.812-13.121,3.749h0a15.681,15.681,0,0,1-3.749.625C64.3,69.2,56.8,70.138,50.553,71.7h-.312c-.937.312-2.187.625-3.124.937-.312,0-.937.312-1.25.312s-.937.312-1.25.312a38.235,38.235,0,0,0-7.186,3.124h0c-.312.312-.937.312-1.25.625s-.625.625-.937.625a.306.306,0,0,0-.312.312,23.488,23.488,0,0,0-4.686,5l-.312.312L29,85.134c0,.312-.312.625-.312.937a4.44,4.44,0,0,0-.625,1.874v.312C11.189,76.7,3.379,60.453,7.128,46.082Z" transform="translate(17.97 18.07)"/>
    </g>
  </g>
</svg>
