<svg xmlns="http://www.w3.org/2000/svg" viewBox="0 0 45.478 45.705">
  <defs>
    <style>
      .cls-1 {
        opacity: 0.575;
      }

      .cls-2, .cls-4 {
        fill: #fff;
      }

      .cls-3, .cls-4 {
        stroke: none;
      }
    </style>
  </defs>
  <g id="Group_292" data-name="Group 292" class="cls-1" transform="translate(0.8 0.801)">
    <g id="Path_392" data-name="Path 392" class="cls-2" transform="translate(-6.087 -3.625)">
      <path class="cls-3" d="M 28.02605438232422 29.97370529174805 C 26.13693428039551 29.97370529174805 24.60001373291016 28.43678665161133 24.60001373291016 26.54766654968262 C 24.60001373291016 25.07520484924316 25.53733253479004 23.7575626373291 26.86954307556152 23.29722595214844 L 26.86954307556152 15.95651626586914 C 26.86954307556152 15.28638648986816 27.35592460632324 14.80000591278076 28.02605438232422 14.80000591278076 C 28.69617462158203 14.80000591278076 29.18255424499512 15.28638648986816 29.18255424499512 15.95651626586914 L 29.18255424499512 23.30940055847168 C 30.13479423522949 23.6736011505127 30.90010833740234 24.43891525268555 31.26430892944336 25.39115524291992 L 36.3476448059082 25.39115524291992 C 36.98534393310547 25.39115524291992 37.50415420532227 25.90996551513672 37.50415420532227 26.54766654968262 C 37.50415420532227 27.21779632568359 37.01777267456055 27.70417594909668 36.3476448059082 27.70417594909668 L 31.26313400268555 27.70417594909668 C 30.7381706237793 29.07348823547363 29.47174072265625 29.97370529174805 28.02605438232422 29.97370529174805 Z M 28.02604484558105 25.43464660644531 C 27.41232490539551 25.43464660644531 26.91303443908691 25.93394660949707 26.91303443908691 26.54766654968262 C 26.91303443908691 27.16138648986816 27.41232490539551 27.66068649291992 28.02604484558105 27.66068649291992 C 28.6397647857666 27.66068649291992 29.13906478881836 27.16138648986816 29.13906478881836 26.54766654968262 C 29.13906478881836 25.93394660949707 28.6397647857666 25.43464660644531 28.02604484558105 25.43464660644531 Z"/>
      <path class="cls-4" d="M 28.02605438232422 29.57370567321777 C 29.46342468261719 29.57370567321777 30.59818458557129 28.59024620056152 30.9764347076416 27.30417633056641 L 36.3476448059082 27.30417633056641 C 36.80155563354492 27.30417633056641 37.10415267944336 27.00156593322754 37.10415267944336 26.54766654968262 C 37.10415267944336 26.0937557220459 36.72590255737305 25.79115676879883 36.3476448059082 25.79115676879883 L 30.9764347076416 25.79115676879883 C 30.6738338470459 24.73203659057617 29.8416748046875 23.89987564086914 28.78255462646484 23.59727668762207 L 28.78255462646484 15.95651626586914 C 28.78255462646484 15.50260639190674 28.47995376586914 15.20000648498535 28.02605438232422 15.20000648498535 C 27.5721435546875 15.20000648498535 27.26954460144043 15.50260639190674 27.26954460144043 15.95651626586914 L 27.26954460144043 23.59727668762207 C 25.98347473144531 23.89987564086914 25.00001335144043 25.11029624938965 25.00001335144043 26.54766654968262 C 25.00001335144043 28.21198654174805 26.36173439025879 29.57370567321777 28.02605438232422 29.57370567321777 M 28.02604484558105 25.03464698791504 C 28.85821342468262 25.03464698791504 29.53906440734863 25.71550559997559 29.53906440734863 26.54766654968262 C 29.53906440734863 27.37982559204102 28.85821342468262 28.0606861114502 28.02604484558105 28.0606861114502 C 27.19389343261719 28.0606861114502 26.51303482055664 27.37982559204102 26.51303482055664 26.54766654968262 C 26.51303482055664 25.71550559997559 27.19389343261719 25.03464698791504 28.02604484558105 25.03464698791504 M 28.02605438232422 30.37370681762695 C 25.9163646697998 30.37370681762695 24.20001411437988 28.65735626220703 24.20001411437988 26.54766654968262 C 24.20001411437988 25.00603294372559 25.1235523223877 23.6158561706543 26.46954345703125 23.0247688293457 L 26.46954345703125 15.95651626586914 C 26.46954345703125 15.05461597442627 27.12415313720703 14.40000629425049 28.02605438232422 14.40000629425049 C 28.92795372009277 14.40000629425049 29.58255386352539 15.05461597442627 29.58255386352539 15.95651626586914 L 29.58255386352539 23.04482650756836 C 30.43598556518555 23.44280433654785 31.13090515136719 24.13772392272949 31.52888298034668 24.99115562438965 L 36.3476448059082 24.99115562438965 C 37.20590209960938 24.99115562438965 37.90415573120117 25.68940544128418 37.90415573120117 26.54766654968262 C 37.90415573120117 27.44956588745117 37.24954223632812 28.10417556762695 36.3476448059082 28.10417556762695 L 31.52823638916016 28.10417556762695 C 30.89017295837402 29.48307228088379 29.54747581481934 30.37370681762695 28.02605438232422 30.37370681762695 Z M 28.02604484558105 25.83464622497559 C 27.63288307189941 25.83464622497559 27.31303405761719 26.15450668334961 27.31303405761719 26.54766654968262 C 27.31303405761719 26.94082641601562 27.63288307189941 27.26068687438965 28.02604484558105 27.26068687438965 C 28.41920471191406 27.26068687438965 28.73906326293945 26.94082641601562 28.73906326293945 26.54766654968262 C 28.73906326293945 26.15450668334961 28.41920471191406 25.83464622497559 28.02604484558105 25.83464622497559 Z"/>
    </g>
    <g id="Path_393" data-name="Path 393" class="cls-2" transform="translate(0 0.1)">
      <path class="cls-3" d="M 34.04289627075195 44.40456771850586 C 33.75841522216797 44.40456771850586 33.43952560424805 44.26948928833008 33.23049545288086 44.06044006347656 L 30.7825984954834 41.61254119873047 C 28.04301071166992 42.89545059204102 24.99168586730957 43.5723991394043 21.93875694274902 43.5723991394043 C 18.76537132263184 43.5723991394043 15.79099750518799 42.91407775878906 13.09253597259521 41.61491012573242 L 10.64700698852539 44.06044769287109 C 10.43798732757568 44.26948928833008 10.11909675598145 44.40456771850586 9.834616661071777 44.40456771850586 C 9.550127029418945 44.40456771850586 9.231237411499023 44.26948928833008 9.022207260131836 44.06044006347656 C 8.566677093505859 43.60490036010742 8.566677093505859 42.89120101928711 9.022207260131836 42.43564987182617 L 10.93271732330322 40.525146484375 C 8.074541091918945 38.7276496887207 5.669795513153076 36.24312591552734 3.957286834716797 33.31262969970703 C 2.09654688835144 30.12846946716309 1.113016963005066 26.5009593963623 1.113016963005066 22.82226943969727 C 1.113016963005066 17.54192161560059 3.095690488815308 12.51010513305664 6.705143451690674 8.608207702636719 L 5.976418495178223 7.879488468170166 L 3.157577037811279 10.69833946228027 C 2.922796964645386 10.93310928344727 2.6646568775177 11.04244899749756 2.345176935195923 11.04244899749756 C 2.025696992874146 11.04244899749756 1.76755690574646 10.93310928344727 1.532786965370178 10.69834899902344 C 0.286406934261322 9.451969146728516 -0.3999930620193481 7.806679248809814 -0.3999930620193481 6.065569400787354 C -0.3999930620193481 4.324449062347412 0.286406934261322 2.679159164428711 1.532776951789856 1.432789206504822 C 2.779146909713745 0.1864091902971268 4.424427032470703 -0.5000008344650269 6.165546894073486 -0.5000008344650269 C 7.90666675567627 -0.5000008344650269 9.551946640014648 0.1864091902971268 10.79831695556641 1.432789206504822 C 11.0330867767334 1.667549133300781 11.14242649078369 1.925699234008789 11.14242649078369 2.245189189910889 C 11.14242649078369 2.564669132232666 11.0330867767334 2.822819232940674 10.79831695556641 3.057579278945923 L 7.601215362548828 6.254689693450928 L 8.342053413391113 6.99553394317627 C 12.21471118927002 3.720216035842896 17.0283374786377 1.920829176902771 21.93875694274902 1.920829176902771 C 26.93879508972168 1.920829176902771 31.756591796875 3.721932888031006 35.54689025878906 6.999948978424072 L 36.26759338378906 6.321634292602539 L 33.07920837402344 3.13322925567627 C 32.84443664550781 2.898479223251343 32.73508834838867 2.640329122543335 32.73508834838867 2.320829153060913 C 32.73508834838867 2.001339197158813 32.84443664550781 1.743189215660095 33.07921600341797 1.508429169654846 C 34.32556533813477 0.2620591819286346 35.97084808349609 -0.4243508279323578 37.71196746826172 -0.4243508279323578 C 39.45307540893555 -0.4243508279323578 41.09836578369141 0.2620591819286346 42.3447380065918 1.508439183235168 C 43.59110641479492 2.754809141159058 44.27751541137695 4.400089263916016 44.27751541137695 6.141209125518799 C 44.27751541137695 7.882328987121582 43.59110641479492 9.527619361877441 42.3447380065918 10.77398872375488 C 42.10995864868164 11.00875949859619 41.8518180847168 11.11809921264648 41.5323371887207 11.11809921264648 C 41.21285629272461 11.11809921264648 40.95471572875977 11.00875949859619 40.71994781494141 10.77399921417236 L 37.90109634399414 7.955138683319092 L 37.17509078979492 8.681136131286621 C 40.78244781494141 12.5080394744873 42.76449584960938 17.51402854919434 42.76449584960938 22.82226943969727 C 42.76449584960938 26.51577949523926 41.79093551635742 30.14299964904785 39.94906616210938 33.31182098388672 C 38.24039077758789 36.25150299072266 35.82634353637695 38.73697662353516 32.94678497314453 40.52713012695312 L 34.85529708862305 42.43564987182617 C 35.31083679199219 42.89120101928711 35.31083679199219 43.60490036010742 34.85530853271484 44.06044769287109 C 34.64627838134766 44.26948928833008 34.32738876342773 44.40456771850586 34.04289627075195 44.40456771850586 Z M 21.93875694274902 4.30950927734375 C 19.44081687927246 4.30950927734375 17.0172061920166 4.799169063568115 14.73523712158203 5.764899253845215 C 12.53102684020996 6.697719097137451 10.55104732513428 8.033049583435059 8.850306510925293 9.733789443969727 C 7.149567127227783 11.43453884124756 5.814237117767334 13.41451930999756 4.881416797637939 15.61873912811279 C 3.915696859359741 17.90070915222168 3.426036834716797 20.3243293762207 3.426036834716797 22.82226943969727 C 3.426036834716797 25.32021903991699 3.915696859359741 27.74383926391602 4.881416797637939 30.02580833435059 C 5.814237117767334 32.23001861572266 7.149567127227783 34.20999908447266 8.850306510925293 35.91074752807617 C 10.55104732513428 37.61149978637695 12.53102684020996 38.94683074951172 14.73523712158203 39.879638671875 C 17.0172061920166 40.84536743164062 19.44081687927246 41.33502960205078 21.93875694274902 41.33502960205078 C 24.43669700622559 41.33502960205078 26.86030769348145 40.84536743164062 29.14227676391602 39.879638671875 C 31.34648704528809 38.94683074951172 33.32646560668945 37.61149978637695 35.02720642089844 35.91074752807617 C 36.72794723510742 34.20999908447266 38.06327819824219 32.23001861572266 38.99609756469727 30.02580833435059 C 39.96181869506836 27.74383926391602 40.45147705078125 25.32021903991699 40.45147705078125 22.82226943969727 C 40.45147705078125 20.3243293762207 39.96181869506836 17.90070915222168 38.99609756469727 15.61873912811279 C 38.06327819824219 13.41451930999756 36.72794723510742 11.43453884124756 35.02720642089844 9.733789443969727 C 33.32646560668945 8.033049583435059 31.34648704528809 6.697719097137451 29.14227676391602 5.764899253845215 C 26.86030769348145 4.799169063568115 24.43669700622559 4.30950927734375 21.93875694274902 4.30950927734375 Z M 35.65403747558594 2.458490371704102 L 41.39431762695312 8.198780059814453 C 42.33234024047852 6.59255838394165 42.07586288452148 4.489163875579834 40.71993637084961 3.13322925567627 L 40.71664810180664 3.129939079284668 L 40.71343612670898 3.126579284667969 C 39.9444580078125 2.32098913192749 38.90213775634766 1.877329230308533 37.77847671508789 1.877329230308533 C 37.03499603271484 1.877329230308533 36.29576873779297 2.081443786621094 35.65403747558594 2.458490371704102 Z M 6.171667098999023 1.902359127998352 C 5.059647083282471 1.902359127998352 3.986856937408447 2.341799259185791 3.150926828384399 3.139729261398315 C 1.787270307540894 4.441417217254639 1.506717562675476 6.539840221405029 2.418393611907959 8.192063331604004 L 8.221054077148438 2.456865072250366 C 7.60032844543457 2.092835664749146 6.900283813476562 1.902359127998352 6.171667098999023 1.902359127998352 Z"/>
      <path class="cls-4" d="M 34.04289627075195 44.00457000732422 C 34.19420623779297 44.00457000732422 34.42115783691406 43.92892074584961 34.57245635986328 43.77761077880859 C 34.87505722045898 43.47499847412109 34.87505722045898 43.02109909057617 34.57245635986328 42.71849060058594 L 32.30293655395508 40.44895935058594 C 38.35500717163086 36.89336776733398 42.36449813842773 30.31171989440918 42.36449813842773 22.82226943969727 C 42.36449813842773 17.29973983764648 40.17061614990234 12.30677890777588 36.61502838134766 8.675518989562988 L 37.90109634399414 7.389459133148193 L 41.00277709960938 10.49114894866943 C 41.15408706665039 10.64244937896729 41.30538558959961 10.71809959411621 41.5323371887207 10.71809959411621 C 41.7592887878418 10.71809959411621 41.91058731079102 10.64244937896729 42.06189727783203 10.49114894866943 C 44.48272705078125 8.070309638977051 44.48272705078125 4.212109088897705 42.06189727783203 1.791279196739197 C 40.85147857666016 0.5808591842651367 39.28171920776367 -0.02435081638395786 37.71196365356445 -0.02435081638395786 C 36.14220809936523 -0.02435081638395786 34.57245635986328 0.5808591842651367 33.36204528808594 1.791279196739197 C 33.21073532104492 1.94257915019989 33.13508605957031 2.093879222869873 33.13508605957031 2.320829153060913 C 33.13508605957031 2.547789096832275 33.21073532104492 2.699089288711548 33.36204528808594 2.850389242172241 L 36.84197616577148 6.330338954925537 L 35.55591583251953 7.540759086608887 C 31.9246768951416 4.287759304046631 27.15866661071777 2.320829153060913 21.93875694274902 2.320829153060913 C 16.71884727478027 2.320829153060913 11.95283699035645 4.363409042358398 8.321597099304199 7.540759086608887 L 7.035536766052246 6.25468921661377 L 10.51547718048096 2.774739265441895 C 10.66677665710449 2.623439073562622 10.74242687225342 2.472139120101929 10.74242687225342 2.245189189910889 C 10.74242687225342 2.018229246139526 10.66677665710449 1.866929173469543 10.51547718048096 1.71562922000885 C 9.305062294006348 0.50520920753479 7.735304355621338 -0.1000008136034012 6.165546894073486 -0.1000008136034012 C 4.595789432525635 -0.1000008136034012 3.026031970977783 0.50520920753479 1.815616965293884 1.71562922000885 C -0.6052030324935913 4.136459350585938 -0.6052030324935913 7.994668960571289 1.815616965293884 10.41549873352051 C 1.9669269323349 10.56679916381836 2.118227005004883 10.64244937896729 2.345176935195923 10.64244937896729 C 2.572126865386963 10.64244937896729 2.723427057266235 10.56679916381836 2.874737024307251 10.41549873352051 L 5.976417064666748 7.313809394836426 L 7.262486934661865 8.599868774414062 C 3.706897020339966 12.30676937103271 1.513016939163208 17.29973983764648 1.513016939163208 22.82226943969727 C 1.513016939163208 30.31171989440918 5.598166942596436 36.89336776733398 11.57458686828613 40.44895935058594 L 9.305056571960449 42.71849060058594 C 9.002456665039062 43.02109909057617 9.002456665039062 43.47499847412109 9.305056571960449 43.77761077880859 C 9.456357002258301 43.92892074584961 9.683317184448242 44.00457000732422 9.834616661071777 44.00457000732422 C 9.985917091369629 44.00457000732422 10.21286678314209 43.92892074584961 10.36416721343994 43.77761077880859 L 13.01194667816162 41.12981796264648 C 15.73538684844971 42.49153900146484 18.76141738891602 43.17239761352539 21.93875694274902 43.17239761352539 C 25.11609649658203 43.17239761352539 28.21777725219727 42.41588973999023 30.86555671691895 41.12981796264648 L 33.51334762573242 43.77761077880859 C 33.66464614868164 43.92892074584961 33.89159774780273 44.00457000732422 34.04289627075195 44.00457000732422 M 21.93875694274902 3.909509181976318 C 32.37857818603516 3.909509181976318 40.85147857666016 12.3824291229248 40.85147857666016 22.82226943969727 C 40.85147857666016 33.26211929321289 32.37857818603516 41.73502731323242 21.93875694274902 41.73502731323242 C 11.49893665313721 41.73502731323242 3.026036977767944 33.26211929321289 3.026036977767944 22.82226943969727 C 3.026036977767944 12.3824291229248 11.49893665313721 3.909509181976318 21.93875694274902 3.909509181976318 M 37.77847290039062 1.4773268699646 C 38.95785522460938 1.4773268699646 40.12892913818359 1.934931874275208 41.00277709960938 2.850389242172241 C 42.59144592285156 4.439059257507324 42.81840515136719 7.011198997497559 41.45668792724609 8.826828956604004 L 35.0263557434082 2.396489143371582 C 35.84329605102539 1.78378164768219 36.81371688842773 1.4773268699646 37.77847290039062 1.4773268699646 M 6.171669483184814 1.50235652923584 C 7.110760688781738 1.50235652923584 8.047625541687012 1.793838262557983 8.851157188415527 2.396489143371582 L 2.345176935195923 8.826828956604004 C 1.059116959571838 7.011198997497559 1.210416913032532 4.439069271087646 2.874737024307251 2.850389242172241 C 3.802485704421997 1.964810371398926 4.988837242126465 1.50235652923584 6.171669483184814 1.50235652923584 M 34.04289627075195 44.80456924438477 C 33.65183639526367 44.80456924438477 33.23215866088867 44.6278076171875 32.94764709472656 44.34328079223633 L 30.69669532775879 42.09233474731445 C 27.97073745727539 43.32374572753906 24.95542144775391 43.9724006652832 21.93875694274902 43.9724006652832 C 18.80530738830566 43.9724006652832 15.86040019989014 43.3416748046875 13.1762580871582 42.09687805175781 L 10.92985725402832 44.34328842163086 C 10.64535713195801 44.6278076171875 10.22567653656006 44.80456924438477 9.834616661071777 44.80456924438477 C 9.443547248840332 44.80456924438477 9.023866653442383 44.6278076171875 8.739356994628906 44.34328079223633 C 8.125226974487305 43.7291374206543 8.125226974487305 42.76696014404297 8.73936653137207 42.15280914306641 L 10.29962158203125 40.59254837036133 C 7.571414947509766 38.78561019897461 5.272294521331787 36.35570526123047 3.611937046051025 33.51445007324219 C 1.715446949005127 30.26910972595215 0.7130169272422791 26.57181930541992 0.7130169272422791 22.82226943969727 C 0.7130169272422791 17.56856918334961 2.639118671417236 12.55591106414795 6.152636051177979 8.621392250061035 L 5.976419925689697 8.445178031921387 L 3.440426826477051 10.98117923736572 C 3.130017042160034 11.291579246521 2.771756887435913 11.44244956970215 2.345176935195923 11.44244956970215 C 1.918596982955933 11.44244956970215 1.560336947441101 11.291579246521 1.24994695186615 10.98119926452637 C -0.07198305428028107 9.659258842468262 -0.7999930381774902 7.913529396057129 -0.7999930381774902 6.065569400787354 C -0.7999930381774902 4.217599391937256 -0.07198305428028107 2.471869230270386 1.249926924705505 1.149949193000793 C 2.57185697555542 -0.1719808131456375 4.317586898803711 -0.9000008106231689 6.165546894073486 -0.9000008106231689 C 8.013517379760742 -0.9000008106231689 9.759246826171875 -0.1719808131456375 11.08116722106934 1.149949193000793 C 11.39154720306396 1.460329174995422 11.54242706298828 1.818589210510254 11.54242706298828 2.245189189910889 C 11.54242706298828 2.671789169311523 11.39154720306396 3.030039072036743 11.08116722106934 3.340429067611694 L 8.166904449462891 6.254691600799561 L 8.366830825805664 6.45461893081665 C 12.26197052001953 3.267564058303833 17.05267715454102 1.520829200744629 21.93875694274902 1.520829200744629 C 26.91495513916016 1.520829200744629 31.71366882324219 3.270760774612427 35.53334426879883 6.463401317596436 L 35.69321060180664 6.312938690185547 L 32.79635620117188 3.416069269180298 C 32.48597717285156 3.105709075927734 32.33508682250977 2.747449159622192 32.33508682250977 2.320829153060913 C 32.33508682250977 1.894219160079956 32.48597717285156 1.535959124565125 32.7963752746582 1.225579142570496 C 34.11827850341797 -0.09633081406354904 35.86400604248047 -0.8243508338928223 37.71196746826172 -0.8243508338928223 C 39.5599250793457 -0.8243508338928223 41.30565643310547 -0.09633081406354904 42.62758636474609 1.225589156150818 C 43.94950866699219 2.547519207000732 44.67751693725586 4.293249130249023 44.67751693725586 6.141209125518799 C 44.67751693725586 7.989169120788574 43.94950866699219 9.734909057617188 42.62758636474609 11.05682945251465 C 42.31717681884766 11.36722946166992 41.95891571044922 11.51809883117676 41.5323371887207 11.51809883117676 C 41.10575866699219 11.51809883117676 40.74749755859375 11.36722946166992 40.43710708618164 11.05684947967529 L 37.90109252929688 8.520828247070312 L 37.73004913330078 8.691872596740723 C 41.24050903320312 12.55517482757568 43.16449737548828 17.54202270507812 43.16449737548828 22.82226943969727 C 43.16449737548828 26.58629989624023 42.17220687866211 30.28303909301758 40.29489517211914 33.5128288269043 C 38.63791275024414 36.36355590820312 36.32982635498047 38.79539108276367 33.58169174194336 40.59634780883789 L 35.13814544677734 42.15280914306641 C 35.75228881835938 42.76696014404297 35.75228881835938 43.7291374206543 35.13814544677734 44.34328842163086 C 34.85364532470703 44.6278076171875 34.43396759033203 44.80456924438477 34.04289627075195 44.80456924438477 Z M 21.93875694274902 4.709509372711182 C 19.49466705322266 4.709509372711182 17.12350654602051 5.188529014587402 14.89113712310791 6.133269309997559 C 12.73457717895508 7.045919418334961 10.79730701446533 8.352469444274902 9.133147239685059 10.01662921905518 C 7.468997001647949 11.68078899383545 6.162446975708008 13.6180591583252 5.249786853790283 15.77462959289551 C 4.305057048797607 18.00700950622559 3.826036930084229 20.3781795501709 3.826036930084229 22.82226943969727 C 3.826036930084229 25.2663688659668 4.305057048797607 27.63753890991211 5.249786853790283 29.86990928649902 C 6.162446975708008 32.0264778137207 7.468997001647949 33.96374893188477 9.133147239685059 35.62791061401367 C 10.79730701446533 37.29206848144531 12.7345666885376 38.59861755371094 14.89113712310791 39.51126861572266 C 17.12350654602051 40.45600891113281 19.49466705322266 40.93502807617188 21.93875694274902 40.93502807617188 C 24.38284683227539 40.93502807617188 26.75400733947754 40.45600891113281 28.98637771606445 39.51126861572266 C 31.14294624328613 38.59861755371094 33.08020782470703 37.29206848144531 34.74436569213867 35.62791061401367 C 36.40851593017578 33.96374893188477 37.71506881713867 32.0264778137207 38.62772750854492 29.86990928649902 C 39.57245635986328 27.63753890991211 40.05147552490234 25.2663688659668 40.05147552490234 22.82226943969727 C 40.05147552490234 20.3781795501709 39.57245635986328 18.00700950622559 38.62772750854492 15.77462959289551 C 37.71506881713867 13.6180591583252 36.40851593017578 11.68078899383545 34.74436569213867 10.01662921905518 C 33.08020782470703 8.352469444274902 31.14293670654297 7.045919418334961 28.98637771606445 6.133269309997559 C 26.75400733947754 5.188529014587402 24.38284683227539 4.709509372711182 21.93875694274902 4.709509372711182 Z M 36.3292350769043 2.567997217178345 L 41.28243637084961 7.521205902099609 C 41.83642196655273 6.149399757385254 41.53398132324219 4.512965202331543 40.43708801269531 3.41607928276062 L 40.43051528930664 3.409499168395996 L 40.42409515380859 3.402769088745117 C 39.73132705688477 2.677019119262695 38.79176712036133 2.277329206466675 37.77847671508789 2.277329206466675 C 37.28203964233398 2.277329206466675 36.78762054443359 2.378010749816895 36.3292350769043 2.567997217178345 Z M 6.171667098999023 2.302359104156494 C 5.162986755371094 2.302359104156494 4.188286781311035 2.702499151229858 3.427116870880127 3.42906928062439 C 2.326320648193359 4.479837894439697 2.007770776748657 6.106764316558838 2.541206121444702 7.508267402648926 L 7.540836334228516 2.566763877868652 C 7.109512805938721 2.392431259155273 6.647322654724121 2.302359104156494 6.171667098999023 2.302359104156494 Z"/>
    </g>
    <g id="Path_394" data-name="Path 394" class="cls-2" transform="translate(-6.818 -1.629)">
      <path class="cls-3" d="M 28.75650978088379 9.669536590576172 C 28.08638000488281 9.669536590576172 27.60000038146973 9.183146476745605 27.60000038146973 8.513016700744629 L 27.60000038146973 7.756506443023682 C 27.60000038146973 7.086376667022705 28.08638000488281 6.599996566772461 28.75650978088379 6.599996566772461 C 29.42663955688477 6.599996566772461 29.91301918029785 7.086376667022705 29.91301918029785 7.756506443023682 L 29.91301918029785 8.513016700744629 C 29.91301918029785 9.183146476745605 29.42663955688477 9.669536590576172 28.75650978088379 9.669536590576172 Z"/>
      <path class="cls-4" d="M 28.75650978088379 9.269536972045898 C 29.21042060852051 9.269536972045898 29.51301956176758 8.966926574707031 29.51301956176758 8.513016700744629 L 29.51301956176758 7.756506443023682 C 29.51301956176758 7.302606582641602 29.21042060852051 6.999996662139893 28.75650978088379 6.999996662139893 C 28.30259895324707 6.999996662139893 28 7.302606582641602 28 7.756506443023682 L 28 8.513016700744629 C 28 8.966926574707031 28.30259895324707 9.269536972045898 28.75650978088379 9.269536972045898 M 28.75650978088379 10.06953620910645 C 27.85461044311523 10.06953620910645 27.19999885559082 9.414926528930664 27.19999885559082 8.513016700744629 L 27.19999885559082 7.756506443023682 C 27.19999885559082 6.854606628417969 27.85461044311523 6.199996471405029 28.75650978088379 6.199996471405029 C 29.65840911865234 6.199996471405029 30.31302070617676 6.854606628417969 30.31302070617676 7.756506443023682 L 30.31302070617676 8.513016700744629 C 30.31302070617676 9.414926528930664 29.65840911865234 10.06953620910645 28.75650978088379 10.06953620910645 Z"/>
    </g>
    <g id="Path_395" data-name="Path 395" class="cls-2" transform="translate(-6.818 -12.099)">
      <path class="cls-3" d="M 28.75650978088379 52.66953659057617 C 28.08638000488281 52.66953659057617 27.60000038146973 52.18315505981445 27.60000038146973 51.51302719116211 L 27.60000038146973 50.75650405883789 C 27.60000038146973 50.08637619018555 28.08638000488281 49.59999465942383 28.75650978088379 49.59999465942383 C 29.35097885131836 49.59999465942383 29.91301918029785 50.16203689575195 29.91301918029785 50.75650405883789 L 29.91301918029785 51.51302719116211 C 29.91301918029785 52.18315505981445 29.42663955688477 52.66953659057617 28.75650978088379 52.66953659057617 Z"/>
      <path class="cls-4" d="M 28.75650978088379 52.26953506469727 C 29.21042060852051 52.26953506469727 29.51301956176758 51.96692657470703 29.51301956176758 51.51302719116211 L 29.51301956176758 50.75650405883789 C 29.51301956176758 50.37825393676758 29.13476943969727 49.99999618530273 28.75650978088379 49.99999618530273 C 28.30259895324707 49.99999618530273 28 50.30260467529297 28 50.75650405883789 L 28 51.51302719116211 C 28 51.96692657470703 28.30259895324707 52.26953506469727 28.75650978088379 52.26953506469727 M 28.75650978088379 53.06953430175781 C 27.85461044311523 53.06953430175781 27.19999885559082 52.41492462158203 27.19999885559082 51.51302719116211 L 27.19999885559082 50.75650405883789 C 27.19999885559082 49.85460662841797 27.85461044311523 49.19999694824219 28.75650978088379 49.19999694824219 C 29.57112884521484 49.19999694824219 30.31302070617676 49.94188690185547 30.31302070617676 50.75650405883789 L 30.31302070617676 51.51302719116211 C 30.31302070617676 52.41492462158203 29.65840911865234 53.06953430175781 28.75650978088379 53.06953430175781 Z"/>
    </g>
    <g id="Path_396" data-name="Path 396" class="cls-2" transform="translate(-11.931 -6.986)">
      <path class="cls-3" d="M 50.51301574707031 30.91301918029785 L 49.75650405883789 30.91301918029785 C 49.08637619018555 30.91301918029785 48.59999465942383 30.42663955688477 48.59999465942383 29.75650978088379 C 48.59999465942383 29.08638000488281 49.08637619018555 28.60000038146973 49.75650405883789 28.60000038146973 L 50.51301574707031 28.60000038146973 C 51.18314743041992 28.60000038146973 51.66952514648438 29.08638000488281 51.66952514648438 29.75650978088379 C 51.66952514648438 30.42663955688477 51.18314743041992 30.91301918029785 50.51301574707031 30.91301918029785 Z"/>
      <path class="cls-4" d="M 50.51301574707031 30.51301956176758 C 50.96691513061523 30.51301956176758 51.26952743530273 30.21042060852051 51.26952743530273 29.75650978088379 C 51.26952743530273 29.30259895324707 50.96691513061523 29 50.51301574707031 29 L 49.75650405883789 29 C 49.30260467529297 29 48.99999618530273 29.30259895324707 48.99999618530273 29.75650978088379 C 48.99999618530273 30.21042060852051 49.30260467529297 30.51301956176758 49.75650405883789 30.51301956176758 L 50.51301574707031 30.51301956176758 M 50.51301574707031 31.31302070617676 L 49.75650405883789 31.31302070617676 C 48.85460662841797 31.31302070617676 48.19999694824219 30.65840911865234 48.19999694824219 29.75650978088379 C 48.19999694824219 28.85461044311523 48.85460662841797 28.19999885559082 49.75650405883789 28.19999885559082 L 50.51301574707031 28.19999885559082 C 51.4149169921875 28.19999885559082 52.06952667236328 28.85461044311523 52.06952667236328 29.75650978088379 C 52.06952667236328 30.65840911865234 51.4149169921875 31.31302070617676 50.51301574707031 31.31302070617676 Z"/>
    </g>
    <g id="Path_397" data-name="Path 397" class="cls-2" transform="translate(-1.461 -6.986)">
      <path class="cls-3" d="M 7.51301383972168 30.91301918029785 L 6.756513595581055 30.91301918029785 C 6.086383819580078 30.91301918029785 5.600003719329834 30.42663955688477 5.600003719329834 29.75650978088379 C 5.600003719329834 29.08638000488281 6.086383819580078 28.60000038146973 6.756513595581055 28.60000038146973 L 7.51301383972168 28.60000038146973 C 8.150713920593262 28.60000038146973 8.669524192810059 29.11881065368652 8.669524192810059 29.75650978088379 C 8.669524192810059 30.42663955688477 8.183143615722656 30.91301918029785 7.51301383972168 30.91301918029785 Z"/>
      <path class="cls-4" d="M 7.51301383972168 30.51301956176758 C 7.966923713684082 30.51301956176758 8.269523620605469 30.21042060852051 8.269523620605469 29.75650978088379 C 8.269523620605469 29.30259895324707 7.891273498535156 29 7.51301383972168 29 L 6.756513595581055 29 C 6.302603721618652 29 6.000003814697266 29.30259895324707 6.000003814697266 29.75650978088379 C 6.000003814697266 30.21042060852051 6.302603721618652 30.51301956176758 6.756513595581055 30.51301956176758 L 7.51301383972168 30.51301956176758 M 7.51301383972168 31.31302070617676 L 6.756513595581055 31.31302070617676 C 5.854613780975342 31.31302070617676 5.200003623962402 30.65840911865234 5.200003623962402 29.75650978088379 C 5.200003623962402 28.85461044311523 5.854613780975342 28.19999885559082 6.756513595581055 28.19999885559082 L 7.51301383972168 28.19999885559082 C 8.371273994445801 28.19999885559082 9.069523811340332 28.89825057983398 9.069523811340332 29.75650978088379 C 9.069523811340332 30.65840911865234 8.414914131164551 31.31302070617676 7.51301383972168 31.31302070617676 Z"/>
    </g>
    <g id="Path_398" data-name="Path 398" class="cls-2" transform="translate(-10.421 -3.211)">
      <path class="cls-3" d="M 43.55654144287109 15.94257354736328 C 43.27204895019531 15.94257354736328 42.95317077636719 15.80750370025635 42.744140625 15.59845352172852 C 42.52223968505859 15.37657356262207 42.40002822875977 15.08805370330811 42.40002822875977 14.78607368469238 C 42.40002822875977 14.48408317565918 42.52223968505859 14.19556331634521 42.74414825439453 13.97366333007812 L 43.27368927001953 13.44411373138428 C 43.49560928344727 13.22220325469971 43.78411865234375 13.10000324249268 44.08609771728516 13.10000324249268 C 44.38808059692383 13.10000324249268 44.67658996582031 13.22221374511719 44.89849090576172 13.44411373138428 C 45.12039947509766 13.66600322723389 45.24261093139648 13.95452308654785 45.24261093139648 14.25651359558105 C 45.24261093139648 14.55849361419678 45.12039947509766 14.84701347351074 44.89849090576172 15.06891345977783 L 44.36894989013672 15.59846305847168 C 44.15991973876953 15.80750370025635 43.84103012084961 15.94257354736328 43.55654144287109 15.94257354736328 Z"/>
      <path class="cls-4" d="M 43.55654144287109 15.54257297515869 C 43.70783996582031 15.54257297515869 43.93479919433594 15.46693325042725 44.08609771728516 15.31562328338623 L 44.61565017700195 14.7860631942749 C 44.91825866699219 14.48346328735352 44.91825866699219 14.02955341339111 44.61565017700195 13.72695350646973 C 44.46434783935547 13.57565307617188 44.27522277832031 13.50000286102295 44.08609771728516 13.50000286102295 C 43.89697265625 13.50000286102295 43.70784378051758 13.57565307617188 43.55654144287109 13.72695350646973 L 43.0269889831543 14.25651359558105 C 42.72438049316406 14.55911350250244 42.72438049316406 15.01302337646484 43.0269889831543 15.31562328338623 C 43.17829132080078 15.46693325042725 43.40523910522461 15.54257297515869 43.55654144287109 15.54257297515869 M 43.55654144287109 16.34257316589355 C 43.16547012329102 16.34257316589355 42.74580001831055 16.16582298278809 42.46128845214844 15.88129329681396 C 42.16384887695312 15.58386325836182 42.00003051757812 15.19490337371826 42.00003051757812 14.78607368469238 C 42.00003051757812 14.37723350524902 42.16384887695312 13.98827362060547 42.46131134033203 13.69082355499268 L 42.99084854125977 13.16127300262451 C 43.288330078125 12.86381340026855 43.67728805541992 12.7000036239624 44.08609771728516 12.7000036239624 C 44.49491882324219 12.7000036239624 44.88388061523438 12.86381340026855 45.18133926391602 13.16126346588135 C 45.47879028320312 13.45871353149414 45.64260864257812 13.8476734161377 45.64260864257812 14.25651359558105 C 45.64260864257812 14.66534328460693 45.47879028320312 15.05430316925049 45.18132781982422 15.35175323486328 L 44.65179061889648 15.88130283355713 C 44.36729049682617 16.16582298278809 43.94760894775391 16.34257316589355 43.55654144287109 16.34257316589355 Z"/>
    </g>
    <g id="Path_399" data-name="Path 399" class="cls-2" transform="translate(-3.019 -10.614)">
      <path class="cls-3" d="M 13.15651512145996 46.34257888793945 C 12.87203502655029 46.34257888793945 12.55314540863037 46.20749664306641 12.34411525726318 45.99844741821289 C 12.12221527099609 45.77656555175781 12.00000476837158 45.4880485534668 12.00000476837158 45.18606567382812 C 12.00000476837158 44.88408660888672 12.12221527099609 44.59556579589844 12.34412479400635 44.3736686706543 L 12.87366485595703 43.84410858154297 C 13.0955753326416 43.62219619750977 13.38409519195557 43.4999885559082 13.68607521057129 43.4999885559082 C 13.98805522918701 43.4999885559082 14.27657508850098 43.62219619750977 14.49847507476807 43.84410858154297 C 14.95401477813721 44.29965591430664 14.95401477813721 45.01335906982422 14.49848556518555 45.46890640258789 L 13.96891498565674 45.99846649169922 C 13.75989532470703 46.20749664306641 13.44100475311279 46.34257888793945 13.15651512145996 46.34257888793945 Z"/>
      <path class="cls-4" d="M 13.15651512145996 45.94257736206055 C 13.30781555175781 45.94257736206055 13.53477478027344 45.86692810058594 13.68607521057129 45.71561813354492 L 14.21563529968262 45.18606567382812 C 14.518235206604 44.88345718383789 14.518235206604 44.42955780029297 14.21563529968262 44.12694549560547 C 14.06433010101318 43.97564315795898 13.87520313262939 43.89999008178711 13.68607521057129 43.89999008178711 C 13.49694728851318 43.89999008178711 13.30782032012939 43.97564315795898 13.15651512145996 44.12694549560547 L 12.62696552276611 44.6565055847168 C 12.32435512542725 44.9591178894043 12.32435512542725 45.41301727294922 12.62696552276611 45.71561813354492 C 12.77826499938965 45.86692810058594 13.00521469116211 45.94257736206055 13.15651512145996 45.94257736206055 M 13.15651512145996 46.74257659912109 C 12.76545524597168 46.74257659912109 12.34577560424805 46.56581878662109 12.06126499176025 46.28128814697266 C 11.76382541656494 45.98385620117188 11.60000514984131 45.59489822387695 11.60000514984131 45.18606567382812 C 11.60000514984131 44.77724838256836 11.76382541656494 44.38827896118164 12.06127548217773 44.09081649780273 L 12.59082508087158 43.5612678527832 C 12.88831520080566 43.26379776000977 13.27727508544922 43.0999870300293 13.68607521057129 43.0999870300293 C 14.094895362854 43.0999870300293 14.48386478424072 43.2638053894043 14.781325340271 43.56125640869141 C 15.39546489715576 44.17541885375977 15.39546489715576 45.13759613037109 14.781325340271 45.75174713134766 L 14.25175476074219 46.28130722045898 C 13.96726512908936 46.56581878662109 13.54758548736572 46.74257659912109 13.15651512145996 46.74257659912109 Z"/>
    </g>
    <g id="Path_400" data-name="Path 400" class="cls-2" transform="translate(-10.446 -10.614)">
      <path class="cls-3" d="M 44.18608093261719 46.34257888793945 C 43.90160369873047 46.34257888793945 43.58271408081055 46.20749664306641 43.37368392944336 45.99844741821289 L 42.84413146972656 45.46891784667969 C 42.38857269287109 45.01335906982422 42.38857269287109 44.29965591430664 42.84413146972656 43.84410858154297 C 43.06602096557617 43.62219619750977 43.35454177856445 43.4999885559082 43.65653228759766 43.4999885559082 C 43.95851135253906 43.4999885559082 44.24703216552734 43.62219619750977 44.46893310546875 43.84410858154297 L 44.99848175048828 44.3736686706543 C 45.45403289794922 44.82922744750977 45.45403289794922 45.54291534423828 44.99848175048828 45.99845886230469 C 44.78946304321289 46.20749664306641 44.47057342529297 46.34257888793945 44.18608093261719 46.34257888793945 Z"/>
      <path class="cls-4" d="M 44.18608093261719 45.94257736206055 C 44.33738327026367 45.94257736206055 44.5643424987793 45.86692810058594 44.71564102172852 45.71561813354492 C 45.01824188232422 45.41301727294922 45.01824188232422 44.9591178894043 44.71564102172852 44.6565055847168 L 44.18608093261719 44.12694549560547 C 44.03478240966797 43.97564315795898 43.84565353393555 43.89999008178711 43.65652847290039 43.89999008178711 C 43.46739959716797 43.89999008178711 43.27827453613281 43.97564315795898 43.12697219848633 44.12694549560547 C 42.82436370849609 44.42955780029297 42.82436370849609 44.88345718383789 43.12697219848633 45.18606567382812 L 43.65653228759766 45.71561813354492 C 43.80783462524414 45.86692810058594 44.03478240966797 45.94257736206055 44.18608093261719 45.94257736206055 M 44.18608093261719 46.74257659912109 C 43.79502105712891 46.74257659912109 43.37534332275391 46.56581878662109 43.0908317565918 46.28128814697266 L 42.56129455566406 45.75175857543945 C 41.9471321105957 45.13759613037109 41.9471321105957 44.17541885375977 42.56128311157227 43.56125640869141 C 42.85874176025391 43.2638053894043 43.24771118164062 43.0999870300293 43.65653228759766 43.0999870300293 C 44.06535339355469 43.0999870300293 44.45431137084961 43.2638053894043 44.75177383422852 43.56125640869141 L 45.28133392333984 44.09081649780273 C 45.89547348022461 44.70498657226562 45.89547348022461 45.66715621948242 45.28133392333984 46.28130722045898 C 44.99683380126953 46.56581878662109 44.57715225219727 46.74257659912109 44.18608093261719 46.74257659912109 Z"/>
    </g>
    <g id="Path_401" data-name="Path 401" class="cls-2" transform="translate(-3.019 -3.211)">
      <path class="cls-3" d="M 13.68606758117676 15.94258117675781 C 13.40158748626709 15.94258117675781 13.08269786834717 15.80751132965088 12.87366771697998 15.59847068786621 L 12.34410762786865 15.06891059875488 C 12.12220764160156 14.84702110290527 11.99999713897705 14.55850124359131 11.99999713897705 14.25652122497559 C 11.99999713897705 13.95453071594238 12.12220764160156 13.66601085662842 12.34411716461182 13.44411087036133 C 12.56600761413574 13.22221088409424 12.85452747344971 13.10000133514404 13.15651798248291 13.10000133514404 C 13.45849800109863 13.10000133514404 13.7470178604126 13.22221088409424 13.96891784667969 13.44412136077881 L 14.49846744537354 13.97368049621582 C 14.72036743164062 14.19557094573975 14.84257793426514 14.48409080505371 14.84257793426514 14.78608131408691 C 14.84257793426514 15.08806133270264 14.72036743164062 15.3765811920166 14.49845790863037 15.59848117828369 C 14.28942775726318 15.80751132965088 13.97053718566895 15.94258117675781 13.68606758117676 15.94258117675781 Z"/>
      <path class="cls-4" d="M 13.68606758117676 15.54258060455322 C 13.83736801147461 15.54258060455322 14.06431770324707 15.46693134307861 14.21561717987061 15.31563091278076 C 14.51822757720947 15.01303100585938 14.51822757720947 14.55912113189697 14.21561717987061 14.25652122497559 L 13.68606758117676 13.72696113586426 C 13.53476715087891 13.57565593719482 13.34564018249512 13.50000381469727 13.15651226043701 13.50000381469727 C 12.96738529205322 13.50000381469727 12.77825736999512 13.57565593719482 12.62695789337158 13.72696113586426 C 12.32434749603271 14.02956104278564 12.32434749603271 14.48347091674805 12.62695789337158 14.78607082366943 L 13.15650749206543 15.31563091278076 C 13.30780792236328 15.46693134307861 13.53476715087891 15.54258060455322 13.68606758117676 15.54258060455322 M 13.68606758117676 16.34258079528809 C 13.29501724243164 16.34258079528809 12.87533760070801 16.16583061218262 12.59081745147705 15.88132095336914 L 12.0612678527832 15.35175132751465 C 11.76381778717041 15.05431079864502 11.59999752044678 14.66535091400146 11.59999752044678 14.25652122497559 C 11.59999752044678 13.84768104553223 11.76381778717041 13.45872116088867 12.06127738952637 13.16127109527588 C 12.35872745513916 12.86382102966309 12.7476978302002 12.70000076293945 13.15651798248291 12.70000076293945 C 13.56533718109131 12.70000076293945 13.95429706573486 12.86382102966309 14.25175762176514 13.16127109527588 L 14.78130722045898 13.69084072113037 C 15.07875728607178 13.98828125 15.24257755279541 14.37724113464355 15.24257755279541 14.78608131408691 C 15.24257755279541 15.19491100311279 15.07875728607178 15.58387088775635 14.78129768371582 15.88132095336914 C 14.49678707122803 16.16583061218262 14.07711791992188 16.34258079528809 13.68606758117676 16.34258079528809 Z"/>
    </g>
  </g>
</svg>
