<svg xmlns="http://www.w3.org/2000/svg" viewBox="0 0 108.459 116.78">
  <defs>
    <style>
      .cls-1 {
        fill: #fff;
      }
    </style>
  </defs>
  <g id="Group_603" data-name="Group 603" transform="translate(-4645.477 140.22)">
    <path id="Path_1337" data-name="Path 1337" class="cls-1" d="M93.826,86.226c0,.1-2.391,0-6.408,0a160.7,160.7,0,0,0-35.005,4.017C34.145,94.451,13.677,103.059,0,120.466v-8.417S22.285,84.313,73.071,84.6c4.5,0,9.373.287,14.346.765C89.522,85.556,93.826,86.035,93.826,86.226Z" transform="translate(4645.477 -143.906)"/>
    <path id="Path_1338" data-name="Path 1338" class="cls-1" d="M79.766,82.474a30.506,30.506,0,0,0-3.634-.765A130.575,130.575,0,0,0,52.986,79.7C17.216,79.8,0,95.864,0,95.864v8.417C21.041,84.769,47.439,81.422,63.985,81.422A118.013,118.013,0,0,1,75.94,82C77.662,82.187,79.862,82.569,79.766,82.474Z" transform="translate(4645.477 -143.693)"/>
    <path id="Subtraction_7" data-name="Subtraction 7" class="cls-1" d="M0,85.026V0H108.459V77.853a12.13,12.13,0,0,1-4.572.7c-4.194,0-10.087-1.1-16.91-2.383-1.733-.325-3.525-.66-5.388-1a179.486,179.486,0,0,0-32.07-3.38,112.129,112.129,0,0,0-12.069.635,96.546,96.546,0,0,0-12.4,2.161A88.212,88.212,0,0,0,12.5,78.662,86.8,86.8,0,0,0,0,85.026ZM90.765,57l-.382,3.539A13.029,13.029,0,0,0,96.6,61.977c2.592,0,4.344-.626,5.356-1.913a2.9,2.9,0,0,0,.478-.67c.006-.011.014-.026.025-.045.61-1.072.932-3.537.932-7.128v-10.9H98.417v8.417a3.572,3.572,0,0,1-.383,1.817,1.856,1.856,0,0,1-1.626.861,1.474,1.474,0,0,1-1.434-.765,2.765,2.765,0,0,1-.287-1.53v-8.7H89.713v9.469a5.577,5.577,0,0,0,.67,3.156c.729,1.276,2.3,2.009,4.3,2.009a5.422,5.422,0,0,0,3.73-1.434v1.052a3.066,3.066,0,0,1-.634,2.152,2.771,2.771,0,0,1-2.14.717A9.964,9.964,0,0,1,90.765,57ZM44.187,54.421h0a3.034,3.034,0,0,0,2.869,1.625,6.173,6.173,0,0,0,3.252-.956l.192-2.678a2.12,2.12,0,0,1-1.243.383c-.451,0-.67-.25-.67-.765V41.509H43.613v8.13a3.572,3.572,0,0,1-.383,1.817,1.856,1.856,0,0,1-1.626.861,1.474,1.474,0,0,1-1.434-.765,3.2,3.2,0,0,1-.287-1.434V41.509H34.91v9.373a5.581,5.581,0,0,0,.669,3.156c.73,1.276,2.3,2.009,4.3,2.009a6.436,6.436,0,0,0,4.3-1.625ZM66.472,41.414v3.443h2.3v5.834c0,2.2.322,3.382,1.148,4.208a5,5,0,0,0,3.347,1.052,8.426,8.426,0,0,0,4.3-1.148l.1-3.156a6.2,6.2,0,0,1-2.678.861c-.939,0-1.339-.515-1.339-1.722v-5.93H76.9V41.414H73.645v-4.5l-4.973,1.147.1,3.348Zm-54.325-.287a3.907,3.907,0,0,0-1.052.1,6.347,6.347,0,0,0-4.447,2.284,8,8,0,0,0-1.578,5.081,7.688,7.688,0,0,0,1.817,5.368A5.918,5.918,0,0,0,9.1,55.433a8.438,8.438,0,0,0,3.043.519h.287a11.479,11.479,0,0,0,5.452-1.435l.191-3.347A8.909,8.909,0,0,1,13.486,52.6a3.276,3.276,0,0,1-2.654-1.148,5.124,5.124,0,0,1-.789-3.156c0-2.478.806-4.017,2.1-4.017,1.138,0,1.528.947,1.817,2.582l4.5-.861a5.717,5.717,0,0,0-2.009-3.73,6.306,6.306,0,0,0-3.921-1.148Zm14.25-.1a9.134,9.134,0,0,0-3.168.587,6.391,6.391,0,0,0-2.307,1.529,7.552,7.552,0,0,0-1.889,5.344,7.507,7.507,0,0,0,1.889,5.368,6.174,6.174,0,0,0,2.307,1.478,9.106,9.106,0,0,0,3.168.519c4.543,0,7.365-2.822,7.365-7.365C33.762,43.82,31.009,41.031,26.4,41.031Zm51.839.383v3.443h1.721v10.9h4.878V47.726c0-1.9.665-2.678,2.3-2.678a6.743,6.743,0,0,1,1.339.1V41.318a1.565,1.565,0,0,0-.956-.191,4.2,4.2,0,0,0-3.73,2.3l-.861-2.008Zm-27.832,0v3.443h1.721v10.9H57.1V47.439a3.572,3.572,0,0,1,.383-1.817,1.856,1.856,0,0,1,1.626-.861,1.474,1.474,0,0,1,1.434.765,3.2,3.2,0,0,1,.287,1.434v8.7H65.8V46.2a5.575,5.575,0,0,0-.67-3.156c-.729-1.276-2.3-2.009-4.3-2.009a6.2,6.2,0,0,0-4.878,2.391l-.861-2.008ZM63.985,21.52a7.324,7.324,0,0,0-5.439,2.044,7.611,7.611,0,0,0-1.925,5.416,7.507,7.507,0,0,0,1.889,5.368,6.174,6.174,0,0,0,2.307,1.478,9.106,9.106,0,0,0,3.168.519,7.362,7.362,0,0,0,5.44-2.032,7.452,7.452,0,0,0,1.925-5.332,7.914,7.914,0,0,0-1.961-5.416A6.231,6.231,0,0,0,67.1,22.053,8.638,8.638,0,0,0,63.985,21.52ZM92.869,31.562,92.678,35.2a15.849,15.849,0,0,0,5.643,1.052,7.558,7.558,0,0,0,4.173-1.064,4.338,4.338,0,0,0,1.949-3.718,3.8,3.8,0,0,0-1.781-3.448,10.519,10.519,0,0,0-3.41-1.19c-1.215-.269-2.174-.481-2.174-1.1a.644.644,0,0,1,.16-.526,2.744,2.744,0,0,1,1.945-.525,11.06,11.06,0,0,1,3.922.765V22.094a16.054,16.054,0,0,0-4.3-.67,8.42,8.42,0,0,0-4.352,1.064,4.143,4.143,0,0,0-2.056,3.718c0,3.495,2.94,4.108,5.086,4.556,1.273.265,2.278.475,2.278,1.183,0,.79-1.04.956-1.913.956A10.989,10.989,0,0,1,92.869,31.562Zm-48.491,0L44.187,35.2a15.849,15.849,0,0,0,5.643,1.052A7.558,7.558,0,0,0,54,35.185a4.338,4.338,0,0,0,1.949-3.718,3.8,3.8,0,0,0-1.781-3.448,10.519,10.519,0,0,0-3.41-1.19c-1.215-.269-2.174-.481-2.174-1.1a.644.644,0,0,1,.16-.526,2.744,2.744,0,0,1,1.945-.525,11.06,11.06,0,0,1,3.922.765V22.094a16.054,16.054,0,0,0-4.3-.67,8.42,8.42,0,0,0-4.352,1.064A4.143,4.143,0,0,0,43.9,26.206c0,3.495,2.94,4.108,5.086,4.556,1.273.265,2.278.475,2.278,1.183,0,.79-1.04.956-1.913.956A10.989,10.989,0,0,1,44.378,31.562ZM34.336,15.877V19.32h1.721V32.614a4.089,4.089,0,0,0,.478,2.391c.581.872,1.468,1.243,2.965,1.243a5.9,5.9,0,0,0,3.156-.861l.191-2.678a2.118,2.118,0,0,1-1.243.383c-.45,0-.669-.25-.669-.765V15.877Zm-8.321,5.93V25.25h1.339v7.365a4.94,4.94,0,0,0,.479,2.391c.581.871,1.468,1.243,2.965,1.243a5.9,5.9,0,0,0,3.156-.861l.192-2.678a2.12,2.12,0,0,1-1.243.383c-.451,0-.67-.25-.67-.765V21.807H26.015ZM80.149,25.25a1.474,1.474,0,0,1,1.434.765,3.206,3.206,0,0,1,.287,1.435v8.7h4.973V26.684a5.581,5.581,0,0,0-.67-3.156c-.73-1.276-2.3-2.009-4.3-2.009a6,6,0,0,0-4.878,2.3l-.861-2.009H71.446V25.25h1.721v10.9H78.14V27.928a3.576,3.576,0,0,1,.383-1.818A1.855,1.855,0,0,1,80.149,25.25ZM14.825,29.936v0l1.913,6.024h3.73l4.878-14.25H21.328L18.937,29.84l-2.3-8.129h-4.4l.956,2.965L11.477,29.84,8.895,21.711H4.113l4.973,14.25h3.635l2.1-6.024Zm79.862-12.53h0c0,.1-.195.193-.383.286a13.714,13.714,0,0,0-2.391,1.721A8.693,8.693,0,0,0,89.3,23.587c-.079.226-.161.46-.252.707-.049.148-.1.288-.143.422l0,.007a4.96,4.96,0,0,0-.429,2.249,1.012,1.012,0,0,0,.765-1.052,4.724,4.724,0,0,1,.1-1.052,6.191,6.191,0,0,1,.861-2.2,2.241,2.241,0,0,1,2.163-.9,5.149,5.149,0,0,0,.9-.056,6.93,6.93,0,0,0,4.041-2.618,7.532,7.532,0,0,0,1.6-4.555,2.075,2.075,0,0,0-.809.523,3.717,3.717,0,0,1-.721.529,5.323,5.323,0,0,1-2.179.3,10,10,0,0,0-1.455.079,5.634,5.634,0,0,0-3.192,2.092,3.706,3.706,0,0,0-.825,2.881,6.172,6.172,0,0,1,1.77-2.033A9.239,9.239,0,0,1,93.826,17.6a7.75,7.75,0,0,1,.86-.191ZM29.745,15.3a2.572,2.572,0,0,0-2.582,2.582,2.684,2.684,0,0,0,.753,1.949,2.558,2.558,0,0,0,1.829.729,2.673,2.673,0,0,0,2.678-2.678,2.51,2.51,0,0,0-.8-1.865A2.745,2.745,0,0,0,29.745,15.3ZM26.3,52.6a1.838,1.838,0,0,1-1.829-1.052,7.047,7.047,0,0,1-.466-3.06,7.1,7.1,0,0,1,.466-3.025A1.861,1.861,0,0,1,26.3,44.378a1.839,1.839,0,0,1,1.829,1.052,7.046,7.046,0,0,1,.466,3.061,7.046,7.046,0,0,1-.466,3.06A1.839,1.839,0,0,1,26.3,52.6ZM63.985,33a1.838,1.838,0,0,1-1.829-1.052,7.047,7.047,0,0,1-.466-3.061,7.047,7.047,0,0,1,.466-3.06,2.116,2.116,0,0,1,3.658,0,7.046,7.046,0,0,1,.466,3.06,7.046,7.046,0,0,1-.466,3.061A1.839,1.839,0,0,1,63.985,33Z" transform="translate(4645.477 -140.22)"/>
  </g>
</svg>
